<svg id="visual" viewBox="0 0 960 540" width="960" height="540" xmlns="http://www.w3.org/2000/svg" xmlns:xlink="http://www.w3.org/1999/xlink" version="1.1"><path d="M0 93L87 93L87 50L175 50L175 44L262 44L262 39L349 39L349 39L436 39L436 93L524 93L524 33L611 33L611 82L698 82L698 39L785 39L785 77L873 77L873 87L960 87L960 50L960 0L960 0L873 0L873 0L785 0L785 0L698 0L698 0L611 0L611 0L524 0L524 0L436 0L436 0L349 0L349 0L262 0L262 0L175 0L175 0L87 0L87 0L0 0Z" fill="#fa7268"></path><path d="M0 271L87 271L87 287L175 287L175 179L262 179L262 271L349 271L349 141L436 141L436 260L524 260L524 233L611 233L611 217L698 217L698 141L785 141L785 179L873 179L873 233L960 233L960 212L960 48L960 85L873 85L873 75L785 75L785 37L698 37L698 80L611 80L611 31L524 31L524 91L436 91L436 37L349 37L349 37L262 37L262 42L175 42L175 48L87 48L87 91L0 91Z" fill="#ea5e66"></path><path d="M0 363L87 363L87 352L175 352L175 217L262 217L262 325L349 325L349 217L436 217L436 303L524 303L524 287L611 287L611 271L698 271L698 190L785 190L785 233L873 233L873 341L960 341L960 266L960 210L960 231L873 231L873 177L785 177L785 139L698 139L698 215L611 215L611 231L524 231L524 258L436 258L436 139L349 139L349 269L262 269L262 177L175 177L175 285L87 285L87 269L0 269Z" fill="#d84a64"></path><path d="M0 460L87 460L87 411L175 411L175 314L262 314L262 444L349 444L349 347L436 347L436 444L524 444L524 422L611 422L611 330L698 330L698 266L785 266L785 357L873 357L873 401L960 401L960 374L960 264L960 339L873 339L873 231L785 231L785 188L698 188L698 269L611 269L611 285L524 285L524 301L436 301L436 215L349 215L349 323L262 323L262 215L175 215L175 350L87 350L87 361L0 361Z" fill="#c53762"></path><path d="M0 541L87 541L87 541L175 541L175 541L262 541L262 541L349 541L349 541L436 541L436 541L524 541L524 541L611 541L611 541L698 541L698 541L785 541L785 541L873 541L873 541L960 541L960 541L960 372L960 399L873 399L873 355L785 355L785 264L698 264L698 328L611 328L611 420L524 420L524 442L436 442L436 345L349 345L349 442L262 442L262 312L175 312L175 409L87 409L87 458L0 458Z" fill="#b0235f"></path></svg>